<svg width="30" height="30" viewBox="0 0 30 30" fill="none" xmlns="http://www.w3.org/2000/svg">
<circle cx="15" cy="15" r="15" fill="#116ACC"/>
<path d="M20.08 18.282C19.772 19.1033 19.332 19.8147 18.76 20.416C18.188 21.0027 17.5133 21.45 16.736 21.758C15.9733 22.066 15.1373 22.22 14.228 22.22C12.8493 22.22 11.654 21.9193 10.642 21.318C9.64467 20.702 8.86733 19.8367 8.31 18.722C7.76733 17.6073 7.496 16.28 7.496 14.74C7.496 13.2 7.76733 11.8727 8.31 10.758C8.86733 9.64333 9.64467 8.78533 10.642 8.184C11.654 7.568 12.8347 7.26 14.184 7.26C15.1227 7.26 15.9587 7.392 16.692 7.656C17.4253 7.90533 18.0487 8.28667 18.562 8.8C19.09 9.29867 19.508 9.91467 19.816 10.648L18.078 11.462C17.7553 10.626 17.286 9.99533 16.67 9.57C16.0687 9.13 15.284 8.91 14.316 8.91C13.3333 8.91 12.468 9.14467 11.72 9.614C10.972 10.0687 10.3853 10.7287 9.96 11.594C9.54933 12.4593 9.344 13.508 9.344 14.74C9.344 15.9573 9.542 17.006 9.938 17.886C10.334 18.7513 10.8987 19.4187 11.632 19.888C12.3653 20.3427 13.2307 20.57 14.228 20.57C15.196 20.57 16.0393 20.328 16.758 19.844C17.4767 19.3453 17.9973 18.6047 18.32 17.622L20.08 18.282ZM23.8147 19.36C24.24 19.36 24.5847 19.492 24.8487 19.756C25.1127 20.02 25.2447 20.3647 25.2447 20.79C25.2447 21.2153 25.1127 21.56 24.8487 21.824C24.5847 22.088 24.24 22.22 23.8147 22.22C23.3893 22.22 23.0447 22.088 22.7807 21.824C22.5167 21.56 22.3847 21.2153 22.3847 20.79C22.3847 20.3647 22.5167 20.02 22.7807 19.756C23.0447 19.492 23.3893 19.36 23.8147 19.36Z" fill="white"/>
</svg>
