<svg width="30" height="30" viewBox="0 0 30 30" fill="none" xmlns="http://www.w3.org/2000/svg">
<circle cx="15" cy="15" r="15" fill="#116ACC"/>
<path d="M9.886 16.163C9.74667 16.5663 9.53767 16.9147 9.259 17.208C8.98767 17.5013 8.65767 17.725 8.269 17.879C7.88767 18.033 7.45867 18.11 6.982 18.11C6.322 18.11 5.74267 17.9597 5.244 17.659C4.75267 17.351 4.36767 16.9183 4.089 16.361C3.81767 15.8037 3.682 15.14 3.682 14.37C3.682 13.6 3.81767 12.9363 4.089 12.379C4.36033 11.8217 4.74167 11.3927 5.233 11.092C5.73167 10.784 6.311 10.63 6.971 10.63C7.46233 10.63 7.89133 10.6997 8.258 10.839C8.632 10.971 8.94733 11.1727 9.204 11.444C9.46067 11.708 9.655 12.0343 9.787 12.423L9.248 12.676C9.07933 12.17 8.81167 11.7887 8.445 11.532C8.07833 11.268 7.598 11.136 7.004 11.136C6.46133 11.136 5.981 11.268 5.563 11.532C5.15233 11.7887 4.82967 12.159 4.595 12.643C4.36767 13.1197 4.254 13.6953 4.254 14.37C4.254 15.0373 4.36767 15.613 4.595 16.097C4.82233 16.581 5.14133 16.955 5.552 17.219C5.96267 17.4757 6.43933 17.604 6.982 17.604C7.56867 17.604 8.06733 17.4647 8.478 17.186C8.88867 16.9 9.17467 16.4893 9.336 15.954L9.886 16.163ZM13.5277 12.39C14.041 12.39 14.492 12.5037 14.8807 12.731C15.2767 12.9583 15.5847 13.2883 15.8047 13.721C16.032 14.1463 16.1457 14.656 16.1457 15.25C16.1457 15.844 16.032 16.3573 15.8047 16.79C15.5847 17.2153 15.2767 17.5417 14.8807 17.769C14.492 17.9963 14.041 18.11 13.5277 18.11C13.0144 18.11 12.5597 17.9963 12.1637 17.769C11.775 17.5417 11.467 17.2153 11.2397 16.79C11.0197 16.3573 10.9097 15.844 10.9097 15.25C10.9097 14.656 11.0197 14.1463 11.2397 13.721C11.467 13.2883 11.775 12.9583 12.1637 12.731C12.5597 12.5037 13.0144 12.39 13.5277 12.39ZM13.5277 12.863C13.1097 12.863 12.7467 12.9583 12.4387 13.149C12.1307 13.3397 11.8887 13.6147 11.7127 13.974C11.544 14.326 11.4597 14.7513 11.4597 15.25C11.4597 15.7413 11.544 16.1667 11.7127 16.526C11.8887 16.8853 12.1307 17.1603 12.4387 17.351C12.7467 17.5417 13.1097 17.637 13.5277 17.637C13.9457 17.637 14.3087 17.5417 14.6167 17.351C14.9247 17.1603 15.163 16.8853 15.3317 16.526C15.5077 16.1667 15.5957 15.7413 15.5957 15.25C15.5957 14.7513 15.5077 14.326 15.3317 13.974C15.163 13.6147 14.9247 13.3397 14.6167 13.149C14.3087 12.9583 13.9457 12.863 13.5277 12.863ZM17.9933 11.433C17.8539 11.433 17.7403 11.3927 17.6523 11.312C17.5716 11.224 17.5313 11.1103 17.5313 10.971C17.5313 10.8317 17.5716 10.7217 17.6523 10.641C17.7403 10.553 17.8539 10.509 17.9933 10.509C18.1326 10.509 18.2426 10.553 18.3233 10.641C18.4113 10.7217 18.4553 10.8317 18.4553 10.971C18.4553 11.1103 18.4113 11.224 18.3233 11.312C18.2426 11.3927 18.1326 11.433 17.9933 11.433ZM18.2683 12.5V18H17.7183V12.5H18.2683ZM20.2212 18V12.5H20.7162L20.7602 13.875L20.6722 13.798C20.7749 13.4973 20.9289 13.2443 21.1342 13.039C21.3395 12.8263 21.5852 12.665 21.8712 12.555C22.1572 12.445 22.4652 12.39 22.7952 12.39C23.2059 12.39 23.5689 12.467 23.8842 12.621C24.1995 12.775 24.4452 13.0023 24.6212 13.303C24.8045 13.6037 24.8962 13.9813 24.8962 14.436V18H24.3462V14.612C24.3462 14.0107 24.1959 13.5707 23.8952 13.292C23.6019 13.0133 23.2169 12.874 22.7402 12.874C22.3955 12.874 22.0729 12.9547 21.7722 13.116C21.4789 13.27 21.2369 13.4973 21.0462 13.798C20.8629 14.0987 20.7712 14.4653 20.7712 14.898V18H20.2212ZM27.0264 17.098C27.1731 17.098 27.2904 17.1457 27.3784 17.241C27.4737 17.329 27.5214 17.4463 27.5214 17.593C27.5214 17.7397 27.4737 17.8607 27.3784 17.956C27.2904 18.044 27.1731 18.088 27.0264 18.088C26.8797 18.088 26.7587 18.044 26.6634 17.956C26.5754 17.8607 26.5314 17.7397 26.5314 17.593C26.5314 17.4463 26.5754 17.329 26.6634 17.241C26.7587 17.1457 26.8797 17.098 27.0264 17.098Z" fill="white"/>
</svg>
